<svg width="512" height="512" viewBox="0 0 512 512" fill="none" xmlns="http://www.w3.org/2000/svg">
<path d="M97.252 386V359.984H106.99C108.982 359.984 110.5 360.236 111.543 360.74C112.586 361.232 113.406 361.988 114.004 363.008C114.613 364.016 114.918 365.158 114.918 366.436C114.918 367.959 114.479 369.4 113.6 370.76C112.721 372.107 111.479 373.139 109.873 373.854L118.381 386H111.789L105.338 375.365H102.35V386H97.252ZM102.35 371.797H103.598C105.836 371.797 107.377 371.311 108.221 370.338C109.064 369.365 109.486 368.264 109.486 367.033C109.486 365.967 109.141 365.123 108.449 364.502C107.758 363.869 106.352 363.553 104.23 363.553H102.35V371.797ZM122.107 386V359.984H138.367V363.553H127.521V370.812H136.416V374.398H127.521V382.309H139.193V386H122.107ZM147.332 386L140.846 359.984H145.961L150.707 379.021L155.189 359.984H159.707L163.961 378.916L168.953 359.984H172.697L165.877 386H160.709L156.701 368.158L152.5 386H147.332ZM173.436 386L183.561 359.984H188.975L199.1 386H193.545L190.838 379.057H180.08L177.373 386H173.436ZM181.416 375.594H189.502L185.459 365.223L181.416 375.594ZM202.791 386V359.984H212.529C214.521 359.984 216.039 360.236 217.082 360.74C218.125 361.232 218.945 361.988 219.543 363.008C220.152 364.016 220.457 365.158 220.457 366.436C220.457 367.959 220.018 369.4 219.139 370.76C218.26 372.107 217.018 373.139 215.412 373.854L223.92 386H217.328L210.877 375.365H207.889V386H202.791ZM207.889 371.797H209.137C211.375 371.797 212.916 371.311 213.76 370.338C214.604 369.365 215.025 368.264 215.025 367.033C215.025 365.967 214.68 365.123 213.988 364.502C213.297 363.869 211.891 363.553 209.77 363.553H207.889V371.797ZM227.646 386V359.984H238.844C241.844 359.984 244.176 360.465 245.84 361.426C247.516 362.387 248.846 363.805 249.83 365.68C250.826 367.543 251.324 369.799 251.324 372.447C251.324 375.037 250.85 377.352 249.9 379.391C248.963 381.43 247.592 383.041 245.787 384.225C243.982 385.408 241.51 386 238.369 386H227.646ZM233.061 382.309H237.104C239.213 382.309 240.824 381.98 241.938 381.324C243.062 380.668 243.947 379.561 244.592 378.002C245.248 376.432 245.576 374.686 245.576 372.764C245.576 370.924 245.26 369.295 244.627 367.877C243.994 366.459 243.115 365.387 241.99 364.66C240.877 363.922 238.99 363.553 236.33 363.553H233.061V382.309ZM267.689 386V359.984H277.428C279.42 359.984 280.938 360.236 281.98 360.74C283.023 361.232 283.844 361.988 284.441 363.008C285.051 364.016 285.355 365.158 285.355 366.436C285.355 367.959 284.916 369.4 284.037 370.76C283.158 372.107 281.916 373.139 280.311 373.854L288.818 386H282.227L275.775 375.365H272.787V386H267.689ZM272.787 371.797H274.035C276.273 371.797 277.814 371.311 278.658 370.338C279.502 369.365 279.924 368.264 279.924 367.033C279.924 365.967 279.578 365.123 278.887 364.502C278.195 363.869 276.789 363.553 274.668 363.553H272.787V371.797ZM289.697 386L299.822 359.984H305.236L315.361 386H309.807L307.1 379.057H296.342L293.635 386H289.697ZM297.678 375.594H305.764L301.721 365.223L297.678 375.594ZM319.053 386V359.984H323.816L335.875 377.756V359.984H340.217V386H335.365L323.395 368.229V386H319.053ZM367.498 385.385C365.178 385.982 363.484 386.34 362.418 386.457C361.363 386.586 360.244 386.65 359.061 386.65C354.186 386.65 350.641 385.361 348.426 382.783C346.211 380.193 345.104 376.918 345.104 372.957C345.104 370.367 345.59 368.041 346.562 365.979C347.535 363.904 349.006 362.281 350.975 361.109C352.955 359.926 355.633 359.334 359.008 359.334C361.855 359.334 364.68 359.668 367.48 360.336V364.572C365.125 363.764 363.432 363.283 362.4 363.131C361.369 362.979 360.385 362.902 359.447 362.902C356.4 362.902 354.203 363.887 352.855 365.855C351.52 367.824 350.852 370.209 350.852 373.01C350.852 376.068 351.643 378.5 353.225 380.305C354.807 382.109 357.033 383.012 359.904 383.012C360.525 383.012 361.252 382.924 362.084 382.748V374.188H367.498V385.385ZM373.58 386V359.984H389.84V363.553H378.994V370.812H387.889V374.398H378.994V382.309H390.666V386H373.58ZM395.201 386V359.984H404.939C406.932 359.984 408.449 360.236 409.492 360.74C410.535 361.232 411.355 361.988 411.953 363.008C412.562 364.016 412.867 365.158 412.867 366.436C412.867 367.959 412.428 369.4 411.549 370.76C410.67 372.107 409.428 373.139 407.822 373.854L416.33 386H409.738L403.287 375.365H400.299V386H395.201ZM400.299 371.797H401.547C403.785 371.797 405.326 371.311 406.17 370.338C407.014 369.365 407.436 368.264 407.436 367.033C407.436 365.967 407.09 365.123 406.398 364.502C405.707 363.869 404.301 363.553 402.18 363.553H400.299V371.797Z" fill="white"/>
<path d="M204.399 418V407.16H210.456V408.31H205.937V411.789H209.724V412.924H205.937V416.85H210.771V418H204.399ZM216.674 416.989C216.245 417.385 215.82 417.683 215.4 417.883C214.985 418.083 214.577 418.183 214.177 418.183C213.615 418.183 213.093 417.998 212.609 417.626C212.126 417.255 211.884 416.713 211.884 416C211.884 415.219 212.221 414.575 212.895 414.067C213.569 413.554 214.646 413.298 216.125 413.298H216.462V412.338C216.462 411.958 216.411 411.682 216.308 411.511C216.206 411.335 216.044 411.198 215.825 411.101C215.61 411.003 215.341 410.954 215.019 410.954C214.272 410.954 213.457 411.188 212.573 411.657V410.463C213.544 410.068 214.46 409.87 215.319 409.87C215.788 409.87 216.218 409.946 216.608 410.097C217.004 410.244 217.319 410.478 217.553 410.8C217.788 411.118 217.905 411.63 217.905 412.338V415.942C217.905 416.342 217.937 416.613 218 416.755C218.063 416.892 218.151 416.997 218.264 417.07C218.381 417.143 218.515 417.18 218.667 417.18C218.73 417.18 218.823 417.17 218.945 417.15L219.047 417.949C218.72 418.105 218.359 418.183 217.963 418.183C217.7 418.183 217.446 418.098 217.202 417.927C216.958 417.756 216.782 417.443 216.674 416.989ZM216.462 416.206V414.147L216 414.133C215.244 414.133 214.609 414.279 214.096 414.572C213.583 414.865 213.327 415.263 213.327 415.766C213.327 416.113 213.452 416.406 213.701 416.645C213.955 416.884 214.25 417.004 214.587 417.004C214.89 417.004 215.197 416.938 215.51 416.806C215.822 416.669 216.14 416.469 216.462 416.206ZM220.864 418V410.046H222.307V411.54C222.58 411.008 222.934 410.598 223.369 410.31C223.808 410.017 224.284 409.87 224.797 409.87C224.943 409.87 225.097 409.882 225.258 409.907V411.254C225.014 411.171 224.794 411.13 224.599 411.13C224.145 411.13 223.725 411.267 223.339 411.54C222.958 411.809 222.614 412.214 222.307 412.756V418H220.864ZM227.001 418V410.046H228.444V411.54C228.811 411.008 229.235 410.598 229.719 410.31C230.207 410.017 230.712 409.87 231.235 409.87C231.909 409.87 232.456 410.085 232.875 410.515C233.295 410.939 233.505 411.53 233.505 412.287V418H232.062V412.756C232.062 412.204 232.014 411.84 231.916 411.665C231.818 411.489 231.682 411.354 231.506 411.262C231.33 411.164 231.142 411.115 230.942 411.115C230.585 411.115 230.2 411.225 229.785 411.445C229.375 411.665 228.928 412.133 228.444 412.851V418H227.001ZM247.392 418L246.857 417.355C246.057 417.966 245.122 418.271 244.052 418.271C243.339 418.271 242.68 418.129 242.075 417.846C241.474 417.558 241.005 417.136 240.668 416.579C240.332 416.022 240.163 415.422 240.163 414.777C240.163 414.099 240.358 413.447 240.749 412.822C241.14 412.192 241.826 411.711 242.807 411.379C242.319 410.495 242.075 409.76 242.075 409.174C242.075 408.769 242.189 408.391 242.419 408.039C242.648 407.683 242.963 407.402 243.364 407.197C243.769 406.992 244.213 406.889 244.697 406.889C245.405 406.889 245.986 407.102 246.44 407.526C246.894 407.951 247.121 408.469 247.121 409.079C247.121 410.163 246.328 411.105 244.741 411.906C245.468 413.195 246.315 414.399 247.282 415.517C247.463 415.253 247.592 415.012 247.67 414.792C247.753 414.567 247.819 414.272 247.868 413.906C247.922 413.54 247.949 413.159 247.949 412.763L247.941 412.236H249.377C249.377 413.837 248.898 415.219 247.941 416.381C248.381 416.938 248.881 417.478 249.443 418H247.392ZM246.228 416.521C245.549 415.686 245.009 414.97 244.609 414.375C244.213 413.779 243.776 413.066 243.298 412.236C242.639 412.5 242.192 412.822 241.958 413.203C241.723 413.579 241.606 413.984 241.606 414.418C241.606 414.887 241.728 415.349 241.972 415.803C242.221 416.257 242.541 416.601 242.932 416.835C243.327 417.07 243.779 417.187 244.287 417.187C244.965 417.187 245.612 416.965 246.228 416.521ZM244.213 410.991C245.249 410.517 245.766 409.887 245.766 409.101C245.766 408.779 245.666 408.51 245.466 408.295C245.266 408.081 244.99 407.973 244.638 407.973C244.238 407.973 243.952 408.095 243.781 408.339C243.61 408.583 243.525 408.84 243.525 409.108C243.525 409.606 243.754 410.234 244.213 410.991ZM256.225 418V407.16H259.506C260.722 407.16 261.562 407.434 262.026 407.98C262.49 408.522 262.722 409.145 262.722 409.848C262.722 410.258 262.639 410.664 262.473 411.064C262.312 411.464 262.08 411.821 261.777 412.133C261.474 412.446 261.062 412.709 260.539 412.924L264.157 418H262.268L259.184 413.415H257.749V418H256.225ZM257.749 412.265H258.247C259.384 412.265 260.151 412.028 260.546 411.555C260.947 411.081 261.147 410.561 261.147 409.995C261.147 409.658 261.071 409.365 260.92 409.116C260.773 408.862 260.542 408.664 260.224 408.522C259.912 408.381 259.409 408.31 258.715 408.31H257.749V412.265ZM271.591 417.744C270.625 418.037 269.797 418.183 269.108 418.183C267.873 418.183 266.901 417.768 266.193 416.938C265.485 416.103 265.131 415.119 265.131 413.986C265.131 413.239 265.288 412.529 265.6 411.855C265.913 411.181 266.32 410.681 266.823 410.354C267.331 410.026 267.927 409.863 268.61 409.863C269.528 409.863 270.261 410.192 270.808 410.852C271.354 411.511 271.628 412.497 271.628 413.811L271.621 414.25H266.604C266.682 414.953 266.833 415.495 267.058 415.876C267.282 416.257 267.58 416.555 267.951 416.77C268.327 416.979 268.803 417.084 269.379 417.084C269.672 417.084 269.963 417.06 270.251 417.011C270.544 416.958 270.991 416.821 271.591 416.601V417.744ZM266.669 413.166H270.178C270.178 412.37 270.021 411.801 269.709 411.459C269.401 411.118 269.006 410.947 268.522 410.947C267.971 410.947 267.539 411.132 267.226 411.503C266.918 411.87 266.733 412.424 266.669 413.166ZM275.048 418L272.771 410.046H274.184L275.927 416.206L277.81 410.046H279.252L280.9 416.206L282.9 410.046H284.138L281.545 418H280.095L278.41 411.84L276.506 418H275.048ZM289.785 416.989C289.355 417.385 288.93 417.683 288.51 417.883C288.095 418.083 287.688 418.183 287.287 418.183C286.726 418.183 286.203 417.998 285.72 417.626C285.236 417.255 284.995 416.713 284.995 416C284.995 415.219 285.332 414.575 286.005 414.067C286.679 413.554 287.756 413.298 289.235 413.298H289.572V412.338C289.572 411.958 289.521 411.682 289.418 411.511C289.316 411.335 289.155 411.198 288.935 411.101C288.72 411.003 288.452 410.954 288.129 410.954C287.382 410.954 286.567 411.188 285.683 411.657V410.463C286.655 410.068 287.57 409.87 288.43 409.87C288.898 409.87 289.328 409.946 289.719 410.097C290.114 410.244 290.429 410.478 290.664 410.8C290.898 411.118 291.015 411.63 291.015 412.338V415.942C291.015 416.342 291.047 416.613 291.11 416.755C291.174 416.892 291.262 416.997 291.374 417.07C291.491 417.143 291.625 417.18 291.777 417.18C291.84 417.18 291.933 417.17 292.055 417.15L292.158 417.949C291.831 418.105 291.469 418.183 291.074 418.183C290.81 418.183 290.556 418.098 290.312 417.927C290.068 417.756 289.892 417.443 289.785 416.989ZM289.572 416.206V414.147L289.111 414.133C288.354 414.133 287.719 414.279 287.207 414.572C286.694 414.865 286.438 415.263 286.438 415.766C286.438 416.113 286.562 416.406 286.811 416.645C287.065 416.884 287.36 417.004 287.697 417.004C288 417.004 288.308 416.938 288.62 416.806C288.933 416.669 289.25 416.469 289.572 416.206ZM293.974 418V410.046H295.417V411.54C295.69 411.008 296.044 410.598 296.479 410.31C296.918 410.017 297.395 409.87 297.907 409.87C298.054 409.87 298.208 409.882 298.369 409.907V411.254C298.125 411.171 297.905 411.13 297.709 411.13C297.255 411.13 296.835 411.267 296.45 411.54C296.069 411.809 295.725 412.214 295.417 412.756V418H293.974ZM305.217 418V416.506C304.924 417.062 304.555 417.482 304.111 417.766C303.671 418.044 303.156 418.183 302.565 418.183C301.589 418.183 300.83 417.824 300.288 417.106C299.75 416.384 299.482 415.439 299.482 414.272C299.482 413.012 299.785 411.965 300.39 411.13C300.996 410.29 301.823 409.87 302.873 409.87C303.181 409.87 303.474 409.907 303.752 409.98C304.03 410.053 304.277 410.158 304.492 410.295C304.711 410.427 304.953 410.646 305.217 410.954V406.435H306.667V418H305.217ZM305.217 411.943C304.719 411.503 304.323 411.23 304.03 411.123C303.742 411.01 303.43 410.954 303.093 410.954C302.39 410.954 301.867 411.25 301.525 411.84C301.188 412.431 301.02 413.193 301.02 414.125C301.02 414.99 301.169 415.671 301.467 416.169C301.77 416.667 302.236 416.916 302.866 416.916C303.266 416.916 303.662 416.806 304.052 416.586C304.448 416.367 304.836 416.04 305.217 415.605V411.943Z" fill="white"/>
<g clip-path="url(#clip0_212_393)">
<mask id="mask0_212_393" style="mask-type:luminance" maskUnits="userSpaceOnUse" x="204" y="69" width="176" height="238">
<path d="M380 69H204.827V307H380V69Z" fill="white"/>
</mask>
<g mask="url(#mask0_212_393)">
<path fill-rule="evenodd" clip-rule="evenodd" d="M315.608 235.924L362.645 306.352H290.467L245.214 238.514L205.638 179.095C205.638 179.095 294.684 179.095 294.846 179.095C308.633 179.095 320.311 167.438 320.311 153.676C320.311 139.59 308.958 128.257 294.846 128.257H273.274L233.698 69H294.684C341.559 69 379.513 106.886 379.513 153.676C379.513 176.99 369.944 198.2 354.697 213.581C344.317 224.267 330.205 232.2 315.608 235.924Z" fill="#00EAFF"/>
</g>
<mask id="mask1_212_393" style="mask-type:luminance" maskUnits="userSpaceOnUse" x="132" y="69" width="114" height="62">
<path d="M245.863 69H132V130.2H245.863V69Z" fill="white"/>
</mask>
<g mask="url(#mask1_212_393)">
<path fill-rule="evenodd" clip-rule="evenodd" d="M243.754 128.257H171.576L132 69H204.178L243.754 128.257Z" fill="#00EAFF"/>
</g>
</g>
<defs>
<clipPath id="clip0_212_393">
<rect width="248" height="238" fill="white" transform="translate(132 69)"/>
</clipPath>
</defs>
</svg>
