<svg width="718" height="517" viewBox="0 0 718 517" fill="none" xmlns="http://www.w3.org/2000/svg">
<g clip-path="url(#clip0_211_244)">
<path d="M120.429 496.142C119.854 496.169 119.285 496.018 118.799 495.71C118.312 495.402 117.932 494.952 117.71 494.421C117.488 493.89 117.435 493.303 117.557 492.741C117.68 492.178 117.972 491.667 118.395 491.277L118.587 490.512C118.562 490.45 118.536 490.389 118.511 490.328C117.931 488.96 116.961 487.793 115.721 486.975C114.48 486.156 113.026 485.723 111.54 485.728C110.054 485.734 108.603 486.178 107.369 487.006C106.135 487.833 105.173 489.007 104.604 490.38C102.329 495.858 99.4336 501.345 98.7206 507.138C98.4065 509.698 98.539 512.293 99.1121 514.808C93.7699 503.155 90.9958 490.489 90.978 477.669C90.9768 474.453 91.1556 471.238 91.5133 468.041C91.809 465.42 92.2192 462.818 92.7439 460.235C95.6072 446.217 101.755 433.078 110.682 421.897C115.003 419.54 118.497 415.915 120.694 411.51C121.49 409.927 122.052 408.236 122.364 406.492C121.876 406.556 120.526 399.133 120.894 398.678C120.214 397.647 118.999 397.134 118.257 396.129C114.567 391.127 109.484 392 106.831 398.797C101.162 401.658 101.107 406.403 104.585 410.967C106.798 413.87 107.102 417.798 109.044 420.906C108.844 421.162 108.636 421.41 108.437 421.666C104.785 426.361 101.602 431.403 98.9345 436.719C99.5833 430.764 98.8089 424.739 96.675 419.141C94.5123 413.923 90.4587 409.529 86.889 405.019C82.6012 399.602 73.8087 401.966 73.0533 408.834C73.0459 408.9 73.0388 408.967 73.0318 409.033C73.5621 409.332 74.0811 409.65 74.5889 409.985C75.2269 410.412 75.7212 411.021 76.0072 411.733C76.2931 412.445 76.3573 413.226 76.1913 413.976C76.0254 414.725 75.637 415.406 75.0771 415.931C74.5172 416.455 73.8119 416.799 73.0536 416.915L72.9759 416.927C73.1648 418.838 73.4987 420.732 73.9747 422.593C69.3952 440.303 79.282 446.753 93.399 447.043C93.7106 447.203 94.0143 447.362 94.326 447.514C91.6454 455.111 89.9639 463.023 89.324 471.053C88.9617 475.791 88.983 480.55 89.3879 485.284L89.3639 485.116C88.3411 479.852 85.5329 475.102 81.4135 471.669C75.2953 466.643 66.6514 464.792 60.0509 460.752C59.3495 460.302 58.5338 460.061 57.7002 460.059C56.8666 460.057 56.0498 460.294 55.3462 460.741C54.6425 461.188 54.0813 461.827 53.7288 462.582C53.3763 463.337 53.2472 464.178 53.3567 465.004C53.3656 465.063 53.3746 465.122 53.3837 465.181C54.3677 465.581 55.3257 466.043 56.2522 466.563C56.7824 466.862 57.3014 467.18 57.8093 467.515C58.4472 467.942 58.9415 468.551 59.2275 469.263C59.5134 469.975 59.5776 470.756 59.4116 471.505C59.2456 472.255 58.8573 472.936 58.2974 473.461C57.7375 473.985 57.0322 474.328 56.2739 474.445L56.1962 474.457C56.1403 474.465 56.0923 474.473 56.0365 474.481C57.7177 478.495 60.0773 482.19 63.012 485.404C65.8754 500.864 78.174 502.331 91.3295 497.829H91.3375C92.7809 504.101 94.8723 510.207 97.5779 516.047H119.871C119.951 515.799 120.023 515.543 120.095 515.296C118.031 515.425 115.959 515.302 113.926 514.928C115.58 512.899 117.234 510.853 118.888 508.823C118.925 508.786 118.96 508.745 118.992 508.704C119.831 507.665 120.678 506.634 121.517 505.595L121.517 505.594C121.562 502.41 121.196 499.233 120.429 496.142Z" fill="#F2F2F2"/>
<path d="M146.07 515.548H182.044C188.196 494.831 182.077 445.872 190.186 425.861C205.745 387.492 225.622 347.008 262.72 328.274C278.561 320.274 295.832 317.15 313.47 317.32C337.836 317.551 362.886 324.092 385.821 332.76C395.203 336.298 404.499 340.188 413.758 344.163C448.643 359.154 483.149 375.481 520.664 379.894C568.135 385.474 623.948 364.235 636.914 318.487C646.81 283.462 628.988 247.099 610.298 215.818C591.608 184.537 570.716 151.068 574.129 114.851C574.141 114.729 574.153 114.595 574.178 114.474C575.462 101.465 583.229 92.1166 594.079 86.123H546.84C546.216 119.908 565.762 149.73 583.351 179.175C602.041 210.444 619.863 246.819 609.968 281.845C597.002 327.581 489.64 273.969 442.169 268.376C428.763 266.808 450.058 272.388 437.276 268.376C417.228 262.091 415.006 319.739 395.496 311.278C383.35 306.001 371.192 300.762 358.874 296.105C353.774 294.172 348.563 292.361 343.291 290.683C343.286 290.683 343.282 290.682 343.278 290.679C343.273 290.677 343.27 290.674 343.267 290.671C307.868 279.462 269.154 275.097 236.447 291.303C236.227 291.412 235.994 291.522 235.774 291.631C198.675 310.354 178.799 350.838 163.24 389.207C150.384 420.925 152.406 482.09 146.07 515.548Z" fill="#F2F2F2"/>
<path d="M359.313 514.486C183.748 518.205 179.898 441.301 179.898 349.829C179.898 258.357 259.957 186.8 359.166 186.8C458.374 186.8 537.166 258.33 537.166 349.8C537.166 441.27 458.521 514.486 359.313 514.486Z" fill="white"/>
<path d="M358.313 515.486C182.748 519.205 178.898 442.301 178.898 350.829C178.898 259.357 259.611 184.942 358.819 184.942C458.028 184.942 538.741 259.359 538.741 350.829C538.741 442.299 457.521 515.486 358.313 515.486ZM358.819 189.506C262.34 189.506 185.473 261.888 183.849 350.829C182.338 433.555 277.655 536.786 358.819 512.154C402.346 467.956 525.406 420.352 533.79 350.829C544.451 262.42 455.299 189.506 358.819 189.506Z" fill="#E6E6E6"/>
<path d="M5.26795e-06 515.675C-0.000460802 515.832 0.0300033 515.987 0.0896451 516.131C0.149287 516.276 0.236929 516.407 0.34753 516.518C0.458131 516.628 0.589508 516.716 0.734103 516.776C0.878698 516.835 1.03366 516.866 1.19007 516.865H716.48C716.796 516.865 717.098 516.74 717.321 516.517C717.545 516.294 717.67 515.991 717.67 515.675C717.67 515.36 717.545 515.057 717.321 514.834C717.098 514.611 716.796 514.485 716.48 514.485H1.19007C1.03366 514.485 0.8787 514.515 0.734107 514.575C0.589514 514.635 0.458139 514.722 0.347539 514.833C0.236939 514.943 0.149296 515.075 0.0896532 515.219C0.03001 515.364 -0.00045682 515.519 5.26795e-06 515.675Z" fill="#CCCCCC"/>
<path d="M481.974 500.445H469.622L463.746 452.8L481.977 452.801L481.974 500.445Z" fill="#A0616A"/>
<path d="M482.409 513.331L444.425 513.33V512.849C444.425 508.928 445.983 505.168 448.755 502.395C451.528 499.623 455.288 498.065 459.209 498.065L466.149 492.801L479.094 498.066L482.41 498.066L482.409 513.331Z" fill="#4D4C59"/>
<path d="M463.206 390.005C449.1 376.308 432.89 364.961 415.192 356.396L406.166 366.585L411.915 354.846C388.227 344.029 362.513 338.364 336.473 338.227C310.433 338.089 284.66 343.482 260.86 354.048L265.55 364.234L258.348 355.181C239.757 363.829 222.744 375.526 208.012 389.788C206.498 391.199 205.563 393.123 205.388 395.185C205.312 396.306 205.478 397.43 205.874 398.481C206.27 399.532 206.888 400.485 207.684 401.277C209.954 402.351 213.188 404.817 217.994 411.586C219.468 413.039 221.451 413.86 223.52 413.872C225.59 413.885 227.583 413.089 229.075 411.654C257.614 384.028 295.777 368.583 335.497 368.583C375.217 368.583 413.38 384.028 441.919 411.654C443.41 413.089 445.403 413.885 447.473 413.872C449.543 413.86 451.526 413.039 453 411.585C457.836 407.236 458.966 401.088 463.12 401.465C464.583 400.051 465.47 398.144 465.612 396.114C465.673 394.983 465.49 393.851 465.075 392.797C464.66 391.743 464.022 390.791 463.206 390.005Z" fill="#00EAFF"/>
<path d="M369.031 404.832L356.679 404.831L350.803 357.187L369.033 357.188L369.031 404.832Z" fill="#A0616A"/>
<path d="M369.466 417.718L331.482 417.716V417.236C331.482 413.315 333.04 409.555 335.812 406.782C338.585 404.01 342.345 402.452 346.266 402.452L353.205 397.188L366.151 402.453L369.466 402.453L369.466 417.718Z" fill="#4D4C59"/>
<path d="M496.097 229.417L408.437 238.576L386.898 259.858L352.636 271.046C348.323 272.454 344.542 275.146 341.8 278.761C339.058 282.377 337.485 286.743 337.292 291.277C336.401 312.173 334.639 346.865 332.778 346.502C330.118 345.983 335.436 358.983 339.16 358.228C342.885 357.473 346.759 365.95 344.184 367.457C341.608 368.964 345.898 381.858 345.898 381.858L372.73 377.535C376.089 352.201 388.356 325.498 373.898 306.858C398.383 298.913 419.953 292.268 435.813 288.174L444.391 284.614L462.201 473.846L487.387 474.26C494.336 438.509 497.828 406.333 492.396 383.379C492.396 383.379 493.176 314.422 496.155 315.176C499.133 315.93 496.608 306.947 496.608 306.947C496.608 306.947 494 299.297 497.205 296.123C500.41 292.949 498.408 274.281 498.408 274.281C503.704 256.615 502.11 242.029 496.097 229.417Z" fill="#67676E"/>
<path d="M506.461 190.804C507.329 186.911 508.197 183.017 509.065 179.123C511.504 168.218 513.938 157.319 516.369 146.424C519.56 132.15 522.765 117.378 520.02 103.014C519.609 100.854 519.032 98.7282 518.297 96.6558C514.185 84.897 505.107 74.5933 493.068 72.4233L491.101 65.0942L464.238 61.7876L459.154 68.7993C448.211 67.9243 441.715 78.8208 434.166 87.8003L431.166 90.8003C428.979 93.5347 428.531 103.807 427.166 106.8C421.095 120.11 429.461 107.175 429.166 121.8C428.861 136.956 425.881 151.662 425.575 166.816C425.543 168.442 422.043 169.682 421.441 172.533C421.116 174.071 423.827 176.926 423.416 178.646C423.065 180.114 424.817 186.015 424.441 187.533C422.698 194.573 418.748 197.345 418.575 200.816C418.496 202.152 418.297 203.478 417.98 204.778C417.764 205.701 414.736 204.595 414.441 205.533C413.946 207.107 416.126 210.733 415.528 212.309C414.372 215.359 415.15 220.745 414.441 223.533C411.469 235.234 412.61 230.59 406.166 240.8C422.66 245.787 429.784 262.486 446.751 265.492C447.515 263.02 448.278 260.542 449.038 258.057C451.287 258.202 453.55 258.336 455.812 258.46C455.939 260.618 456.067 262.776 456.195 264.92C473.394 266.029 490.643 266.123 507.852 265.202C507.276 263.472 506.815 261.706 506.473 259.916C505.529 254.936 507.559 249.536 507.776 244.607C507.929 240.956 506.193 237.853 506.244 233.92C506.257 233.193 510.343 232.581 510.33 231.839C510.265 225.302 506.551 216.556 507.776 210.134C509.053 203.534 505.006 197.368 506.461 190.806L506.461 190.804Z" fill="#E6E6E6"/>
<path d="M380.805 32.9053C378.528 32.9079 376.344 33.8139 374.734 35.4244C373.123 37.0349 372.217 39.2184 372.215 41.496V93.2597C372.217 95.5372 373.123 97.7208 374.734 99.3313C376.344 100.942 378.528 101.848 380.805 101.85H396.82C399.097 101.848 401.281 100.942 402.891 99.3313C404.502 97.7208 405.408 95.5372 405.41 93.2596C407.963 67.2498 407.025 53.2128 405.41 41.496C405.408 39.2184 404.502 37.0349 402.891 35.4244C401.281 33.8139 399.097 32.9079 396.82 32.9053L380.805 32.9053Z" fill="#00EAFF"/>
<path d="M378.805 32.9053C376.528 32.9079 374.344 33.8139 372.734 35.4243C371.123 37.0348 370.217 39.2182 370.215 41.4958C369.295 61.8434 368.655 81.2487 370.215 93.2595C370.217 95.5371 371.123 97.7207 372.734 99.3313C374.344 100.942 376.528 101.848 378.805 101.85H394.82C397.097 101.848 399.281 100.942 400.891 99.3313C402.502 97.7208 403.408 95.5372 403.41 93.2596V41.496C403.408 39.2184 402.502 37.0349 400.891 35.4244C399.281 33.8139 397.097 32.908 394.82 32.9053L378.805 32.9053Z" fill="#E6E6E6"/>
<path d="M420.032 108.242C420.032 108.242 435.179 107.628 427.469 114.168C422.452 118.423 411.156 148.051 399.419 151.635C398.037 152.056 396.582 152.186 395.148 152.016C393.713 151.846 392.33 151.379 391.085 150.647C389.839 149.914 388.76 148.93 387.915 147.758C387.07 146.587 386.478 145.252 386.175 143.839L375.536 94.2501L389.434 92.1362L397.903 131.384L420.032 108.242Z" fill="#A0616A"/>
<path d="M383.254 97.872C388.682 97.872 393.083 93.4713 393.083 88.0427C393.083 82.6141 388.682 78.2134 383.254 78.2134C377.825 78.2134 373.424 82.6141 373.424 88.0427C373.424 93.4713 377.825 97.872 383.254 97.872Z" fill="#A0616A"/>
<path d="M440.578 81.1441C449.582 87.9061 452.233 110.08 446.575 119.816C435.759 138.427 414.436 152.755 413.526 150.765C412.281 148.04 410.111 151.699 410.185 152.897C410.259 154.095 406.151 153.738 406.629 155.006C407.108 156.273 403.866 156.549 402.458 157.284C402.458 157.284 389.573 157.502 385.507 151.621C381.442 145.741 380.897 137.616 380.897 137.616L375.85 131.678L402.608 116.036L400.402 126.594L413.75 111.052L416.575 104.816L421.082 102.515L422.575 97.816L426.731 95.9372L443.166 76.8003L440.578 81.1441Z" fill="#E6E6E6"/>
<path d="M514.511 263.304C515.634 262.563 516.581 261.585 517.285 260.438C517.989 259.292 518.433 258.005 518.586 256.668C518.74 255.332 518.598 253.978 518.171 252.702C517.744 251.426 517.042 250.259 516.116 249.284L518.006 165.199L501.392 167.783L502.564 249.34C501.028 251.006 500.157 253.176 500.115 255.441C500.072 257.706 500.863 259.907 502.335 261.629C503.808 263.35 505.861 264.471 508.105 264.78C510.349 265.088 512.628 264.563 514.511 263.304Z" fill="#A0616A"/>
<path d="M515.235 93.5244C515.235 93.5244 514.133 94.3574 519.784 102.969C520.905 104.677 521.665 111.563 522.196 120.549C522.37 123.477 524.036 125.533 524.166 128.8C524.276 131.573 522.854 135.523 522.938 138.398C522.983 139.932 524.127 141.266 524.166 142.8C524.182 143.44 523.096 144.283 523.111 144.92C523.128 145.608 523.144 146.293 523.16 146.976C523.548 164.055 523.631 179.48 524.017 179.22C524.839 178.664 522.797 181.536 523.818 182.015C524.839 182.495 522.946 184.873 523.434 186.106C524.028 187.608 523.289 189.265 522.822 190.773C521.474 195.127 521.183 198.866 520.011 200.934C521.403 201.733 522.489 202.972 523.099 204.456C523.71 205.94 523.809 207.585 523.381 209.132L499.964 204.898C497.109 200.325 497.522 195.525 499.467 194.688L498.888 179.805L492.219 102.806L511.764 94.0798L515.235 93.5244Z" fill="#E6E6E6"/>
<path d="M369.898 46.1812C369.562 46.1812 369.288 46.3413 369.288 46.5383V49.3952C369.288 49.5922 369.562 49.7523 369.898 49.7523C370.234 49.7523 370.508 49.5921 370.508 49.3952V46.5383C370.508 46.3413 370.234 46.1812 369.898 46.1812Z" fill="#E6E6E6"/>
<path d="M369.898 53.752C369.562 53.752 369.288 53.9121 369.288 54.1091V59.6443C369.288 59.8413 369.562 60.0014 369.898 60.0014C370.234 60.0014 370.508 59.8413 370.508 59.6443V54.1091C370.508 53.9121 370.234 53.752 369.898 53.752Z" fill="#E6E6E6"/>
<path d="M403.898 54.752C403.719 54.7724 403.555 54.8623 403.441 55.0022C403.327 55.1422 403.272 55.3211 403.288 55.5009V67.109C403.27 67.1995 403.271 67.2931 403.293 67.383C403.315 67.4728 403.357 67.5566 403.415 67.6283C403.474 67.7 403.547 67.7579 403.631 67.7976C403.714 67.8373 403.806 67.8579 403.898 67.8579C403.991 67.8579 404.082 67.8373 404.165 67.7976C404.249 67.7579 404.322 67.7 404.381 67.6283C404.439 67.5566 404.481 67.4728 404.503 67.383C404.525 67.2931 404.526 67.1995 404.508 67.109V55.5009C404.524 55.3211 404.469 55.1422 404.355 55.0022C404.241 54.8623 404.077 54.7724 403.898 54.752Z" fill="#E6E6E6"/>
<path d="M368.898 62.6084C368.562 62.6084 368.288 62.7686 368.288 62.9655V68.5007C368.288 68.6977 368.562 68.8579 368.898 68.8579C369.234 68.8579 369.508 68.6977 369.508 68.5007V62.9655C369.508 62.7686 369.234 62.6084 368.898 62.6084Z" fill="#E6E6E6"/>
<path d="M475.789 59.1911C489.653 59.1911 500.893 47.9516 500.893 34.087C500.893 20.2224 489.653 8.98291 475.789 8.98291C461.924 8.98291 450.684 20.2224 450.684 34.087C450.684 47.9516 461.924 59.1911 475.789 59.1911Z" fill="#A0616A"/>
<path d="M503.819 45.622C501.859 49.5441 499.993 51.9971 496.605 54.1896C496.433 53.6898 496.294 53.1792 496.189 52.661C495.828 53.4672 495.476 54.2715 495.107 55.0795C492.963 56.2765 495.277 54.4297 491.768 55.7681L488.816 50.7025C488.008 48.2979 489.153 45.6791 490.61 43.5981C492.068 41.5257 493.883 39.6257 494.674 37.2163C495.465 34.8069 494.763 31.6149 492.393 30.7181C490.059 29.8225 487.481 31.5215 485 31.2263C482.136 30.8886 480.188 27.8926 480.032 25.0102C479.877 22.1278 481.053 19.3603 482.204 16.7226C478.736 19.2078 467.994 23.6601 462.146 23.8728C461.988 22.0487 461.145 20.3522 459.786 19.1248C460.024 20.7854 459.62 22.4743 458.656 23.8472C452.93 23.5536 451.854 31.8695 448.898 28.8582C449.821 28.3939 446.42 18.0592 447.343 17.5948C446.633 15.6491 445.924 13.7091 445.216 11.7747C446.531 12.1063 447.857 12.4445 449.181 12.7742C449.264 12.0669 449.479 11.3815 449.815 10.7539C450.759 10.2158 451.763 9.7918 452.807 9.49081C453.143 9.40096 453.488 9.30931 453.837 9.23465C454.352 9.11978 454.874 9.03469 455.4 8.9798C454.639 8.53842 453.871 8.10731 453.108 7.65748C453.016 7.60586 452.934 7.55241 452.843 7.5008C453.915 6.76408 455.034 6.09956 456.195 5.51166C461.087 2.95256 466.164 0.344951 471.678 0.0259711C475.261 -0.202127 478.812 0.820124 481.725 2.9183C484.237 4.72255 487.279 5.63763 490.37 5.51876C491.873 5.50731 493.359 5.83832 494.715 6.48668C494.094 7.11238 493.414 7.67762 492.686 8.1748C494.277 8.21617 495.86 8.25937 497.453 8.30926C499.237 9.93271 500.741 11.8388 501.906 13.951C507.486 23.4848 508.761 35.7452 503.819 45.622Z" fill="#4D4C59"/>
<path d="M423.202 436.726C423.011 435.473 422.524 434.283 421.781 433.256C421.038 432.229 420.061 431.394 418.93 430.821C408.318 425.389 397.195 421.018 385.723 417.772L374.989 431.923L382.923 416.991C353.558 409.113 322.693 408.675 293.116 415.717L297.244 427.099L290.5 416.368C277.183 419.717 264.288 424.566 252.063 430.821C250.937 431.397 249.964 432.231 249.222 433.255C248.48 434.279 247.991 435.464 247.793 436.713C247.596 437.963 247.697 439.241 248.088 440.443C248.479 441.646 249.148 442.739 250.042 443.634C254.683 443.92 257.747 448.232 260.806 454.399C261.978 455.556 263.479 456.322 265.104 456.592C266.728 456.863 268.396 456.624 269.88 455.91C290.38 446.159 312.796 441.1 335.497 441.1C358.198 441.1 380.613 446.159 401.114 455.91C402.597 456.624 404.265 456.863 405.889 456.592C407.514 456.322 409.014 455.556 410.186 454.399C412.025 449.412 415.815 446.464 420.952 443.634C421.85 442.745 422.522 441.654 422.914 440.453C423.305 439.251 423.404 437.974 423.202 436.726Z" fill="#00EAFF"/>
<path d="M363.894 485.46C361.543 485.091 359.178 484.769 356.799 484.494L347.473 499.333L354.422 484.241C343.131 483.087 331.758 482.967 320.445 483.883L327.558 499.333L317.983 484.097C314.328 484.443 310.701 484.898 307.1 485.46C305.867 485.643 304.71 486.169 303.763 486.98C302.816 487.79 302.117 488.851 301.746 490.041C301.35 491.24 301.296 492.526 301.589 493.755C301.883 494.984 302.512 496.107 303.407 496.999C307.258 500.771 311.503 506.009 318.481 512.073C319.162 512.763 319.984 513.297 320.892 513.638C321.799 513.979 322.769 514.119 323.736 514.048C327.603 513.762 331.56 513.617 335.497 513.617C339.434 513.617 343.391 513.762 347.257 514.048C348.224 514.118 349.194 513.977 350.101 513.636C351.008 513.295 351.831 512.762 352.512 512.073C359.718 505.922 363.359 500.282 367.587 496.999C368.482 496.107 369.111 494.984 369.404 493.755C369.697 492.526 369.643 491.24 369.248 490.041C368.877 488.851 368.177 487.79 367.23 486.979C366.283 486.169 365.127 485.643 363.894 485.46Z" fill="#00EAFF"/>
</g>
<defs>
<clipPath id="clip0_211_244">
<rect width="717.67" height="516.866" fill="white"/>
</clipPath>
</defs>
</svg>
