<svg width="525" height="419" viewBox="0 0 525 419" fill="none" xmlns="http://www.w3.org/2000/svg">
<g clip-path="url(#clip0_211_295)">
<path d="M442.174 400.477C444.24 400.606 445.381 398.039 443.817 396.543L443.662 395.925C443.682 395.876 443.703 395.827 443.723 395.777C444.955 392.837 448.349 391.445 451.295 392.663C460.609 396.514 450.775 405.363 451.514 411.351C451.773 413.418 459.869 413.531 459.411 415.56C463.716 406.148 465.979 395.871 465.976 385.537C465.975 382.94 465.832 380.344 465.54 377.754C465.301 375.635 464.97 373.53 464.543 371.444C462.234 360.167 457.237 349.428 450.033 340.459C446.57 338.568 448.682 335.609 446.937 332.064C446.31 330.785 440.719 330.756 440.486 329.355C440.736 329.388 444.35 325.634 443.156 323.778C442.371 322.557 442.615 321.002 443.624 319.958C443.723 319.856 443.817 319.748 443.902 319.631C446.883 315.587 450.992 316.292 453.139 321.786C457.722 324.097 457.768 327.932 454.958 331.622C453.17 333.969 452.925 337.145 451.356 339.658C451.518 339.864 451.686 340.065 451.848 340.271C454.81 344.068 457.372 348.149 459.533 352.437C458.921 347.671 459.82 341.929 461.354 338.227C463.114 333.979 466.424 330.405 469.323 326.73C472.786 322.342 479.833 324.333 480.446 329.89C480.452 329.943 480.458 329.996 480.463 330.05C480.034 330.292 479.614 330.549 479.204 330.821C476.865 332.369 477.676 335.995 480.448 336.421L480.511 336.431C480.356 337.975 474.878 342.838 474.491 344.343C478.196 358.651 475.424 360.541 464.025 360.78L463.427 361.632C464.507 364.738 465.376 367.918 466.029 371.14C466.643 374.13 467.071 377.152 467.311 380.188C467.609 384.018 467.585 387.868 467.263 391.691L467.282 391.556C468.101 387.344 470.386 383.41 473.705 380.683C478.65 376.619 485.636 375.12 490.971 371.853C493.538 370.28 496.83 372.31 496.383 375.288L496.361 375.431C495.567 375.754 494.792 376.129 494.043 376.549C493.614 376.791 493.193 377.049 492.783 377.321C490.443 378.869 491.255 382.496 494.027 382.921L494.09 382.93C494.136 382.937 494.174 382.943 494.219 382.95C492.858 386.186 479.884 390.751 477.508 393.342C475.198 405.84 476.333 405.468 465.697 401.832H465.691C464.53 406.897 462.833 411.845 460.651 416.56L442.631 416.567C442.567 416.366 442.508 416.16 442.45 415.959C444.117 416.062 445.796 415.965 447.436 415.661C446.099 414.02 444.761 412.367 443.424 410.727C443.391 410.695 443.365 410.663 443.34 410.631L443.319 410.605L441.464 404.498C441.61 403.143 441.85 401.8 442.174 400.477Z" fill="#F2F2F2"/>
<path d="M251.744 416.42L92.2874 416.475C84.2767 416.478 77.1009 412.338 73.0931 405.402C71.089 401.934 70.0867 398.129 70.0854 394.323C70.0841 390.518 71.0842 386.712 73.0855 383.243L152.763 238.194C156.767 231.254 163.94 227.11 171.95 227.107C179.961 227.105 187.137 231.244 191.145 238.18L270.934 383.192C272.932 386.652 273.932 390.452 273.933 394.255C273.932 398.058 272.933 401.864 270.931 405.334C266.928 412.273 259.755 416.417 251.744 416.42ZM72.0898 394.321C72.0895 397.785 89.6851 390.32 91.508 393.476C95.1542 399.786 84.9986 414.478 92.2867 414.475C92.2867 414.475 265.557 410.647 269.199 404.335C271.019 401.178 271.929 397.715 271.928 394.254C271.927 390.792 271.015 387.33 269.191 384.175L189.403 239.163C185.767 232.871 179.239 229.105 171.951 229.107C164.666 229.11 72.0901 390.856 72.0898 394.321Z" fill="#4D4C59"/>
<path d="M253.515 414.419C251.517 418.42 345.129 417.19 346.236 417.19C346.236 417.19 372.548 416.609 373.101 415.65C373.377 415.171 373.515 414.645 373.515 414.119C373.515 413.594 373.376 413.068 373.1 412.589L360.983 390.568C360.431 389.612 359.44 389.041 358.333 389.041C358.287 389.041 358.219 389.082 358.131 389.16C341.968 403.604 322.049 413.153 300.374 413.475C277.327 413.818 253.642 414.165 253.515 414.419Z" fill="#4D4C59"/>
<path d="M7.48514e-08 417.082C0.000230075 417.742 0.53044 418.271 1.19047 418.271L523.48 418.09C524.14 418.09 524.67 417.56 524.67 416.9C524.67 416.24 524.14 415.71 523.48 415.71L1.18965 415.891C0.52962 415.891 -0.000229925 416.422 7.48514e-08 417.082Z" fill="#CCCCCC"/>
<path d="M403.878 411.306L394.833 411.308L390.518 376.422L403.867 376.418L403.878 411.306Z" fill="#A0616A"/>
<path d="M372.889 411.111C372.608 411.586 372.46 413.117 372.46 413.668C372.461 415.364 373.835 416.738 375.531 416.737L403.541 416.727C404.698 416.727 405.635 415.789 405.635 414.632L405.634 413.466C405.634 413.466 407.019 409.961 404.165 405.642C404.165 405.642 400.62 409.026 395.32 403.729L393.757 400.899L382.45 409.174L376.182 409.948C374.81 410.118 373.594 409.923 372.889 411.111Z" fill="#2F2E41"/>
<path d="M369.197 381.468L360.63 384.367L345.369 352.7L358.014 348.421L369.197 381.468Z" fill="#A0616A"/>
<path d="M339.779 391.208C339.664 391.748 340.014 393.246 340.191 393.768C340.734 395.374 342.477 396.235 344.083 395.692L370.615 386.711C371.71 386.341 372.298 385.152 371.927 384.056L371.553 382.952C371.553 382.952 371.742 379.188 367.655 376.01C367.655 376.01 365.381 380.351 358.664 377.031L356.276 374.851L348.216 386.311L342.525 389.052C341.28 389.652 340.066 389.857 339.779 391.208Z" fill="#2F2E41"/>
<path d="M355.226 179.09L337.683 237.191L316.972 289.452L349.761 364.086L361.918 358.677L347.371 290.117L377.878 243.594L392.114 388.826L404.273 388.147L420.763 212.843L423.114 174.676L355.226 179.09Z" fill="#67676E"/>
<path d="M408.21 50.3853L382.542 55.1228L380.519 66.6073L364.985 74.0434L356.908 158.486C356.908 158.486 343.403 176.054 354.214 181.455L423.114 174.676C423.114 174.676 426.488 162.185 423.11 161C419.732 159.815 419.721 129.981 419.721 129.981L435.237 68.615L412.266 60.5167L408.21 50.3853Z" fill="#E6E6E6"/>
<path d="M393.07 50.1637C404.517 50.1637 413.798 40.8836 413.798 29.4361C413.798 17.9886 404.517 8.7085 393.07 8.7085C381.622 8.7085 372.342 17.9886 372.342 29.4361C372.342 40.8836 381.622 50.1637 393.07 50.1637Z" fill="#A0616A"/>
<path d="M406.796 32.5123C405.142 33.4178 406.711 37.741 405.678 38.1147C404.483 38.5467 400.126 33.5876 400.072 28.033C400.056 26.3518 400.443 25.5446 400.07 23.5513C399.584 20.944 398.09 17.8688 396.707 17.9504C395.888 17.9988 395.087 19.1577 395.027 20.1918C394.944 21.6412 396.352 22.2117 396.149 22.9925C395.763 24.4796 389.851 25.5063 387.746 22.9954C386.096 21.0269 387.361 17.5707 386.623 17.3937C386.08 17.2633 385.496 19.1661 383.264 21.3163C382.422 22.1264 381.172 23.3312 380.463 22.9979C379.439 22.5162 380.183 19.1217 379.902 19.0766C379.668 19.0394 379.522 21.4253 378.222 23.5589C376.553 26.2999 373.108 28.4126 371.501 27.4826C370.517 26.9129 370.439 25.3266 370.38 24.1218C370.255 21.5836 366.567 15.7454 367.521 13.0301C369.463 7.50384 372.791 11.3994 374.296 9.5551C376.334 7.05841 378.162 8.40076 381.577 5.63114C384.914 2.9255 384.943 0.206102 387.178 0.027142C389.19 -0.134018 389.905 2.01242 392.22 1.70601C394.181 1.44644 394.607 -0.218348 396.141 0.024032C397.545 0.245932 397.637 1.71252 399.503 2.26369C400.694 2.61557 400.956 2.10626 402.304 2.26272C405.109 2.58828 406.994 5.14355 407.347 5.62221C408.708 7.46747 408.18 8.24562 409.589 10.1031C410.805 11.7049 413.498 11.0247 414.511 11.8247C417.82 14.4388 419.242 19.2597 419.271 24.7543C419.291 28.5974 418.79 30.5391 417.672 35.39C416.823 39.0734 412.89 43.8333 410.722 45.9559C410.14 46.5256 408.509 48.1229 407.361 47.6376C406.274 47.1778 406.241 45.11 406.24 44.837C406.235 43.898 406.485 42.7361 408.479 39.7944C410.574 36.7043 411.406 36.3517 411.279 35.3117C411.054 33.4736 408.114 31.7905 406.796 32.5123Z" fill="#2F2E41"/>
<path d="M334.495 225.759C333.849 231.162 336.114 235.875 339.552 236.285C342.99 236.696 346.3 232.649 346.945 227.246C347.227 224.881 346.952 222.649 346.265 220.851L348.712 197.924L337.928 197.005L336.661 219.704C335.57 221.29 334.777 223.395 334.495 225.759Z" fill="#A0616A"/>
<path d="M365.491 73.4976C365.491 73.4976 359.904 73.577 356.205 80.8014C354.24 84.6404 343.723 156.429 343.723 156.429L334.036 215.238L350.538 215.321L363.397 159.628L374.214 127.327L365.491 73.4976Z" fill="#E6E6E6"/>
<path d="M411.93 217.13C410.349 222.337 411.754 227.372 415.067 228.378C418.381 229.384 422.348 225.978 423.928 220.772C424.62 218.493 424.739 216.246 424.377 214.356L430.796 192.211L420.34 189.42L415.122 211.547C413.77 212.917 412.621 214.851 411.93 217.13Z" fill="#A0616A"/>
<path d="M423.416 69.6323C423.416 69.6323 431.52 63.5498 438.278 73.0047C445.037 82.4597 447.766 160.144 447.766 160.144L428.868 208.112L414.68 203.388L428.17 144.613L404.512 100.037L423.416 69.6323Z" fill="#E6E6E6"/>
<path d="M218.48 384.432C258.796 384.432 291.48 351.748 291.48 311.432C291.48 271.115 258.796 238.432 218.48 238.432C178.163 238.432 145.48 271.115 145.48 311.432C145.48 351.748 178.163 384.432 218.48 384.432Z" fill="#00EAFF"/>
<path d="M218.493 356.181C222.195 356.181 225.195 353.18 225.195 349.479C225.195 345.777 222.195 342.776 218.493 342.776C214.791 342.776 211.79 345.777 211.79 349.479C211.79 353.18 214.791 356.181 218.493 356.181Z" fill="white"/>
<path d="M218.464 266.681C217.848 270.773 218.952 271.629 218.958 289.266C218.964 306.904 222.623 330.552 218.486 330.554C214.349 330.555 212.836 281.751 198.469 277.431C181.578 272.353 220.457 253.437 218.464 266.681Z" fill="white"/>
<path d="M120.503 348.702L113.908 362.637C121.881 356.92 134.335 351.991 144.245 349.352C135.011 344.891 123.712 337.7 116.962 330.58L120.755 345.304C76.2814 336.246 44.3439 302.128 44.3304 263.045L42.7239 262.492C42.7381 303.315 74.2336 339.453 120.503 348.702Z" fill="#4D4C59"/>
</g>
<defs>
<clipPath id="clip0_211_295">
<rect width="524.67" height="418.271" fill="white"/>
</clipPath>
</defs>
</svg>
